<?xml version="1.0" encoding="iso-8859-1"?>
<!-- Uploaded to: SVG Repo, www.svgrepo.com, Generator: SVG Repo Mixer Tools -->
<svg height="800px" width="800px" version="1.1" id="Layer_1" xmlns="http://www.w3.org/2000/svg" xmlns:xlink="http://www.w3.org/1999/xlink" 
	 viewBox="0 0 512 512" xml:space="preserve">
<g transform="translate(1 1)">
	<g>
		<path style="fill:#FFE100;" d="M468.333,178.2c-4.719,0-8.533-3.823-8.533-8.533v-34.133c0-4.71,3.814-8.533,8.533-8.533
			c4.719,0,8.533,3.823,8.533,8.533v34.133C476.867,174.377,473.052,178.2,468.333,178.2z"/>
		<path style="fill:#FFE100;" d="M485.4,161.133h-34.133c-4.719,0-8.533-3.823-8.533-8.533s3.814-8.533,8.533-8.533H485.4
			c4.719,0,8.533,3.823,8.533,8.533S490.119,161.133,485.4,161.133z"/>
		<path style="fill:#FFE100;" d="M41.667,7.533c0,18.867-15.266,34.133-34.133,34.133c18.867,0,34.133,15.266,34.133,34.133
			c0-18.867,15.266-34.133,34.133-34.133C56.933,41.667,41.667,26.401,41.667,7.533"/>
		<path style="fill:#FFE100;" d="M75.8,383c0,4.71-3.823,8.533-8.533,8.533s-8.533-3.823-8.533-8.533s3.823-8.533,8.533-8.533
			S75.8,378.29,75.8,383"/>
		<path style="fill:#FFE100;" d="M33.133,229.4c0,4.71-3.823,8.533-8.533,8.533s-8.533-3.823-8.533-8.533s3.823-8.533,8.533-8.533
			S33.133,224.69,33.133,229.4"/>
		<path style="fill:#FFE100;" d="M451.267,314.733c0,4.71-3.823,8.533-8.533,8.533s-8.533-3.823-8.533-8.533
			s3.823-8.533,8.533-8.533S451.267,310.023,451.267,314.733"/>
		<path style="fill:#FFE100;" d="M511,493.933c0,4.71-3.823,8.533-8.533,8.533s-8.533-3.823-8.533-8.533s3.823-8.533,8.533-8.533
			S511,489.223,511,493.933"/>
	</g>
	<path style="fill:#FDCC00;" d="M366.258,502.467H143.734c-13.952,0-25.267-11.315-25.267-25.276V32.809
		c0-13.96,11.315-25.276,25.267-25.276h222.524c13.961,0,25.276,11.315,25.276,25.276v444.382
		C391.533,491.152,380.218,502.467,366.258,502.467"/>
	<g>
		<path style="fill:#FFE100;" d="M280.6,468.333c0,14.14-11.46,25.6-25.6,25.6c-14.14,0-25.6-11.46-25.6-25.6
			c0-14.14,11.46-25.6,25.6-25.6C269.14,442.733,280.6,454.194,280.6,468.333"/>
		<polygon style="fill:#FFE100;" points="118.467,434.2 391.533,434.2 391.533,58.733 118.467,58.733 		"/>
	</g>
	<path style="fill:#FFA800;" d="M366.258,7.533h-25.6c13.961,0,25.276,11.315,25.276,25.276v444.382
		c0,13.96-11.315,25.276-25.276,25.276h25.6c13.961,0,25.276-11.315,25.276-25.276V32.809
		C391.533,18.848,380.218,7.533,366.258,7.533"/>
	<path style="fill:#FFFFFF;" d="M143.742,7.533h25.6c-13.96,0-25.276,11.315-25.276,25.276v444.382
		c0,13.96,11.315,25.276,25.276,25.276h-25.6c-13.96,0-25.276-11.315-25.276-25.276V32.809
		C118.467,18.848,129.782,7.533,143.742,7.533"/>
	<path d="M366.258,511H143.734c-18.637,0-33.801-15.164-33.801-33.809V32.809C109.933,14.164,125.097-1,143.734-1h222.524
		c18.645,0,33.809,15.164,33.809,33.809v444.382C400.067,495.836,384.903,511,366.258,511z M143.734,16.067
		c-9.224,0-16.734,7.509-16.734,16.742v444.382c0,9.233,7.509,16.742,16.734,16.742h222.524c9.233,0,16.742-7.509,16.742-16.742
		V32.809c0-9.233-7.509-16.742-16.742-16.742H143.734z"/>
	<path d="M400.067,442.733H109.933V50.2h290.133V442.733z M127,425.667h256v-358.4H127V425.667z"/>
	<path d="M289.133,41.667h-42.667c-4.71,0-8.533-3.823-8.533-8.533s3.823-8.533,8.533-8.533h42.667c4.719,0,8.533,3.823,8.533,8.533
		S293.852,41.667,289.133,41.667z"/>
	<path d="M220.867,41.667h-8.533c-4.71,0-8.533-3.823-8.533-8.533s3.823-8.533,8.533-8.533h8.533c4.71,0,8.533,3.823,8.533,8.533
		S225.577,41.667,220.867,41.667z"/>
	<path d="M109.933,101.4c-4.71,0-8.533-3.823-8.533-8.533v-8.533c0-4.71,3.823-8.533,8.533-8.533c4.71,0,8.533,3.823,8.533,8.533
		v8.533C118.467,97.577,114.644,101.4,109.933,101.4z"/>
	<path d="M109.933,135.533c-4.71,0-8.533-3.823-8.533-8.533v-8.533c0-4.71,3.823-8.533,8.533-8.533c4.71,0,8.533,3.823,8.533,8.533
		V127C118.467,131.71,114.644,135.533,109.933,135.533z"/>
	<path d="M109.933,169.667c-4.71,0-8.533-3.823-8.533-8.533V152.6c0-4.71,3.823-8.533,8.533-8.533c4.71,0,8.533,3.823,8.533,8.533
		v8.533C118.467,165.844,114.644,169.667,109.933,169.667z"/>
	<path d="M255,502.467c-18.824,0-34.133-15.309-34.133-34.133c0-18.824,15.309-34.133,34.133-34.133s34.133,15.309,34.133,34.133
		C289.133,487.158,273.824,502.467,255,502.467z M255,451.267c-9.412,0-17.067,7.654-17.067,17.067
		c0,9.412,7.654,17.067,17.067,17.067s17.067-7.654,17.067-17.067C272.067,458.921,264.412,451.267,255,451.267z"/>
	<path d="M161.133,255c-1.869,0-3.755-0.614-5.325-1.869c-3.686-2.944-4.275-8.311-1.331-11.989l34.133-42.667
		c2.944-3.695,8.329-4.275,11.989-1.331c3.686,2.944,4.275,8.311,1.331,11.989L167.798,251.8
		C166.108,253.908,163.625,255,161.133,255z"/>
	<path d="M195.267,297.667c-2.5,0-4.983-1.092-6.665-3.2L154.469,251.8c-2.944-3.678-2.347-9.054,1.331-11.989
		c3.678-2.944,9.054-2.355,11.989,1.331l34.133,42.667c2.944,3.686,2.347,9.054-1.331,11.998
		C199.021,297.061,197.144,297.667,195.267,297.667z"/>
	<path d="M348.875,255c-2.509,0-4.983-1.092-6.673-3.2l-34.133-42.667c-2.944-3.678-2.338-9.054,1.331-11.989
		c3.695-2.953,9.054-2.347,11.998,1.331l34.133,42.667c2.944,3.678,2.338,9.054-1.331,11.989
		C352.621,254.386,350.744,255,348.875,255z"/>
	<path d="M314.725,297.667c-1.869,0-3.746-0.606-5.325-1.869c-3.678-2.953-4.275-8.32-1.331-11.998l34.133-42.667
		c2.952-3.669,8.311-4.275,11.998-1.331c3.678,2.944,4.275,8.311,1.331,11.989l-34.133,42.667
		C319.708,296.566,317.234,297.667,314.725,297.667z"/>
	<path d="M229.4,340.333c-0.853,0-1.724-0.128-2.577-0.401c-4.489-1.416-6.989-6.212-5.564-10.701l51.2-162.133
		c1.408-4.489,6.229-6.989,10.701-5.564c4.497,1.425,6.989,6.212,5.564,10.709l-51.2,162.133
		C236.389,338.012,233.027,340.333,229.4,340.333z"/>
	<path d="M41.667,84.333c-4.71,0-8.533-3.823-8.533-8.533c0-14.114-11.486-25.6-25.6-25.6C2.823,50.2-1,46.377-1,41.667
		s3.823-8.533,8.533-8.533c14.114,0,25.6-11.486,25.6-25.6c0-4.71,3.823-8.533,8.533-8.533S50.2,2.823,50.2,7.533
		c0,14.114,11.486,25.6,25.6,25.6c4.71,0,8.533,3.823,8.533,8.533S80.51,50.2,75.8,50.2c-14.114,0-25.6,11.486-25.6,25.6
		C50.2,80.51,46.377,84.333,41.667,84.333z M33.108,41.667c3.234,2.432,6.127,5.325,8.559,8.559
		c2.432-3.234,5.325-6.127,8.559-8.559c-3.234-2.432-6.127-5.325-8.559-8.559C39.235,36.342,36.342,39.235,33.108,41.667z"/>
	<path d="M459.8,169.667c-4.719,0-8.533-3.823-8.533-8.533V127c0-4.71,3.814-8.533,8.533-8.533s8.533,3.823,8.533,8.533v34.133
		C468.333,165.844,464.519,169.667,459.8,169.667z"/>
	<path d="M476.867,152.6h-34.133c-4.719,0-8.533-3.823-8.533-8.533c0-4.71,3.814-8.533,8.533-8.533h34.133
		c4.719,0,8.533,3.823,8.533,8.533C485.4,148.777,481.586,152.6,476.867,152.6z"/>
	<path d="M67.267,374.467c0,4.71-3.823,8.533-8.533,8.533s-8.533-3.823-8.533-8.533s3.823-8.533,8.533-8.533
		S67.267,369.756,67.267,374.467"/>
	<path d="M24.6,220.867c0,4.71-3.823,8.533-8.533,8.533s-8.533-3.823-8.533-8.533s3.823-8.533,8.533-8.533
		S24.6,216.156,24.6,220.867"/>
	<path d="M442.733,306.2c0,4.71-3.823,8.533-8.533,8.533s-8.533-3.823-8.533-8.533s3.823-8.533,8.533-8.533
		S442.733,301.49,442.733,306.2"/>
	<path d="M502.467,485.4c0,4.71-3.823,8.533-8.533,8.533s-8.533-3.823-8.533-8.533s3.823-8.533,8.533-8.533
		S502.467,480.69,502.467,485.4"/>
</g>
</svg>
