<?xml version="1.0" encoding="utf-8"?><!-- Uploaded to: SVG Repo, www.svgrepo.com, Generator: SVG Repo Mixer Tools -->
<svg fill="#000000" width="800px" height="800px" viewBox="0 0 24 24" id="quality-5" data-name="Flat Color" xmlns="http://www.w3.org/2000/svg" class="icon flat-color"><path id="secondary" d="M21.94,17.89a1,1,0,0,1-.65.63l-2.71.8-1.69,2.27a1,1,0,0,1-.8.41h0a1,1,0,0,1-.81-.43l-2.88-4.11a1,1,0,0,1-.1-1,1,1,0,0,1,.75-.6,5.94,5.94,0,0,0,4.19-3,1,1,0,0,1,.82-.51,1,1,0,0,1,.87.43L21.82,17A1,1,0,0,1,21.94,17.89Zm-11-2a5.94,5.94,0,0,1-4.19-3,1,1,0,0,0-1.69-.08L2.18,17a1,1,0,0,0,.54,1.53l2.7.8,1.69,2.27a1,1,0,0,0,.8.41h0a1,1,0,0,0,.81-.43l2.88-4.11a1,1,0,0,0,.1-1A1,1,0,0,0,11,15.9Z" style="fill: rgb(44, 169, 188);"></path><circle id="primary" cx="12" cy="10" r="8" style="fill: rgb(0, 0, 0);"></circle><path id="secondary-2" data-name="secondary" d="M11.33,12.5h0a1,1,0,0,1-.74-.34l-1.34-1.5a1,1,0,1,1,1.5-1.32l.58.65,1.92-2.15a1,1,0,0,1,1.5,1.32l-2.67,3A1,1,0,0,1,11.33,12.5Z" style="fill: rgb(44, 169, 188);"></path></svg>
